<?xml version="1.0" encoding="UTF-8"?>
<svg version="1.1" viewBox="0 0 2048 890" width="230" height="100" xmlns="http://www.w3.org/2000/svg">
<path transform="translate(212,284)" d="m0 0h61l34 1 12 1 2 3 2 8 6 2 16-1h17l6 4 13 13 9 7 1 2v241l-2 4-17 10-2 8-1 16-1 1h-207l-1-2-1-22v-264l1-29 1-2zm33 73-1 8v176l1 1h28l7-1 2-2 2-6 2-1 19-1 1-10v-150l-2-1-26-3-14-7-13-3z" fill="#FDC607"/>
<path transform="translate(919,285)" d="m0 0h84l1 1-1 97 12-2 2-10 1-1h118v21l2 3 12 3v159l-1 22-14 6-4 2-3 10-3 8-138 1h-33l-34-1-1-13-1-254zm84 159v98h62l1-2v-95l-1-1z" fill="#FDC607"/>
<path transform="translate(1313,370)" d="m0 0h176l26 1 4 4 2 5 5 2 2 2v121l-5 3-4 1-1 9-1 1-138 1 4 15 4 6 5 6 4 7 2 1 15 1h23l5-1 3-12 50-1h29l6 2-1 25-3 9-4 4-3 20-2 2h-204l-2-2v-10l-9-3-4-2-1-2v-200l2-2 8-2 3-3zm69 61-1 18v16l1 5 26 1 13 1 9 7 10 3 2-2v-49z" fill="#FDC607"/>
<path transform="translate(432,370)" d="m0 0h169l21 1 4 4 2 4 6 4 2 3v218l-181 1-37-1-1-7v-209l10-10zm70 61v111h61l1-1v-90l-3-7-10-10-9-3z" fill="#FDC607"/>
<path transform="translate(674,370)" d="m0 0h43l13 1 9 9 6 4v107l10 3 5 5v42h47l1-143 11-4 2-6v-17l1-1h67l4 2-1 231-1 1h-215l-1-1-1-124z" fill="#FDC607"/>
<path transform="translate(1767,284)" d="m0 0h36l92 1 2 2-1 67-1 4-2 1h-70v244l-2 1h-71l-1-18v-183l1-44h-74l-1-1v-73z" fill="#FDC607"/>
<path transform="translate(1186,285)" d="m0 0h87l1 1-1 317-3 2-83-1-1-1-1-10v-307z" fill="#FDC607"/>
<path transform="translate(306,373)" d="m0 0 1 2 4 1 5 6 2 5 1 10 1 38v26l-1 29-1 13-3 12-6 7h-2l-1 9h-1z" fill="#FFD936"/>
<path transform="translate(920,595)" d="m0 0 13 4 12 1h151l27-2 4-1-2 7-138 1h-33l-34-1z" fill="#FED42A"/>
<path transform="translate(368,591)" d="m0 0h1v12l-1 1h-207l1-9 3 1 4 4 47 1h117l26-5 8-4z" fill="#FED227"/>
<path transform="translate(161,285)" d="m0 0 2 1-1 3 4-1 2 2-3 6-1 16v96l-1 23h-1l-1-24h-1v-120z" fill="#FED833"/>
<path transform="translate(891,467)" d="m0 0h1v136h-150v-1l88-1 24-1 11-1h14l11 1z" fill="#FFD936"/>
<path transform="translate(1822,583)" d="m0 0h1v20l-2 1h-71v-10l2 4 7 2 8 1h16l20-3 14-1 3-2z" fill="#FFD936"/>
<path transform="translate(1272,416)" d="m0 0h1v187l-2 1-29-1 3-2 14-4h7l5 1z" fill="#FFD936"/>
<path transform="translate(635,395)" d="m0 0h1v209l-27-1v-1l17-3 7-1 1-1z" fill="#FFD936"/>
<path transform="translate(1867,287)" d="m0 0h28l-1 71-1 1-8-1 2-3 4-18 1-14-1-30-1-4h-12l-11-1z" fill="#FFD936"/>
<path transform="translate(162,595)" d="m0 0 3 1 4 4 47 1 41 1v1l-37 1h-59z" fill="#FFD936"/>
<path transform="translate(1310,596)" d="m0 0 1 4h3l2-1 16 1 30 2v1l-19 1h-31l-2-2z" fill="#FED630"/>
<path transform="translate(1e3 286)" d="m0 0h1v19l-1 10h-1l-1-7-7-14-4-4h12z" fill="#FFD936"/>
<path transform="translate(1518,591)" d="m0 0h1l-1 11-3 2-47-1v-1l20-1 16-3h13z" fill="#FFD936"/>
<path transform="translate(1750,594)" d="m0 0 2 4 7 2 24 2h39l-1 2h-71z" fill="#FED123"/>
<path transform="translate(1022,370)" d="m0 0h114v13l-2-3 1-5h-2l-1-2-3-1-107-1z" fill="#FFD936"/>
<path transform="translate(675,601)" d="m0 0h13l11 1h42l1 2h-66z" fill="#FED733"/>
<path transform="translate(1129,370)" d="m0 0h7v13l-2-3 1-5h-2l-1-2-3-1z" fill="#FED630"/>
</svg>
